<svg id="visual" viewBox="0 0 900 100" width="900" height="100" xmlns="http://www.w3.org/2000/svg" xmlns:xlink="http://www.w3.org/1999/xlink" version="1.1"><path d="M0 73L16.7 71.3C33.3 69.7 66.7 66.3 100 66.3C133.3 66.3 166.7 69.7 200 69.5C233.3 69.3 266.7 65.7 300 63.7C333.3 61.7 366.7 61.3 400 63.2C433.3 65 466.7 69 500 66.3C533.3 63.7 566.7 54.3 600 49.3C633.3 44.3 666.7 43.7 700 45.7C733.3 47.7 766.7 52.3 800 55.2C833.3 58 866.7 59 883.3 59.5L900 60L900 101L883.3 101C866.7 101 833.3 101 800 101C766.7 101 733.3 101 700 101C666.7 101 633.3 101 600 101C566.7 101 533.3 101 500 101C466.7 101 433.3 101 400 101C366.7 101 333.3 101 300 101C266.7 101 233.3 101 200 101C166.7 101 133.3 101 100 101C66.7 101 33.3 101 16.7 101L0 101Z" fill="#0E0426" stroke-linecap="round" stroke-linejoin="miter"></path></svg>